HIERARCHY
ROOT pelvis
{
  OFFSET 0 100 0
  CHANNELS 6 Xposition Yposition Zposition Zrotation Xrotation Yrotation
  JOINT pelvis_right_femur
  {
    OFFSET -10.78128 -3.44521 -0.5502486
    CHANNELS 3 Zrotation Xrotation Yrotation
    JOINT right_femur_tibia
    {
      OFFSET -0.8047443 -44.0398 -0.1307829
      CHANNELS 3 Zrotation Xrotation Yrotation
      JOINT right_tibia_foot
      {
        OFFSET 3.006224 -47.83518 -5
        CHANNELS 3 Zrotation Xrotation Yrotation
        End Site
        {
          OFFSET 0 -5 15
        }
      }
    }
  }
  JOINT pelvis_left_femur
  {
    OFFSET 10.78128 -3.44521 -0.5502486
    CHANNELS 3 Zrotation Xrotation Yrotation
    JOINT left_femur_tibia
    {
      OFFSET 0.8047443 -44.0398 -0.1307829
      CHANNELS 3 Zrotation Xrotation Yrotation
      JOINT left_tibia_foot
      {
        OFFSET -4.370144 -48.10324 -4.275266
        CHANNELS 3 Zrotation Xrotation Yrotation
        End Site
        {
          OFFSET 0 -5 15
        }
      }
    }
  }
  JOINT pelvis_spine1
  {
    OFFSET 0 6.468898 -3.129235
    CHANNELS 3 Zrotation Xrotation Yrotation
    JOINT spine1
    {
      OFFSET 0 23.15396 4.99043
      CHANNELS 3 Zrotation Xrotation Yrotation
      JOINT spine2
      {
        OFFSET 0 20.79997 -5.064912
        CHANNELS 3 Zrotation Xrotation Yrotation
        JOINT neck
        {
          OFFSET 0 14.38658 9.616178
          CHANNELS 3 Zrotation Xrotation Yrotation
          End Site
          {
            OFFSET 0 20 0
          }
        }
      }
      JOINT right_manubrium
      {
        OFFSET -5.722621 16.35077 3.967754
        CHANNELS 3 Zrotation Xrotation Yrotation
        JOINT right_clavicle
        {
          OFFSET -13.16364 1.694482 -4.693211
          CHANNELS 3 Zrotation Xrotation Yrotation
          JOINT right_humerus
          {
            OFFSET -28.5034 -0.3100689 -2.792744
            CHANNELS 3 Zrotation Xrotation Yrotation
            JOINT right_radius
            {
              OFFSET -25.15693 0.02248979 -1.271978
              CHANNELS 3 Zrotation Xrotation Yrotation
              End Site
              {
                OFFSET -15 0 0
              }
            }
          }
        }
      }
      JOINT left_manubrium
      {
        OFFSET 5.722621 16.35077 3.967754
        CHANNELS 3 Zrotation Xrotation Yrotation
        JOINT left_clavicle
        {
          OFFSET 13.16364 1.694482 -4.693211
          CHANNELS 3 Zrotation Xrotation Yrotation
          JOINT left_humerus
          {
            OFFSET 29.39168 -1.063119 -2.237045
            CHANNELS 3 Zrotation Xrotation Yrotation
            JOINT left_radius
            {
              OFFSET 24.59957 -0.9528479 0.9047498
              CHANNELS 3 Zrotation Xrotation Yrotation
              End Site
              {
                OFFSET 15 -0 -0
              }
            }
          }
        }
      }
    }
  }
}
MOTION
Frames: 15
Frame Time: 0.0416666666667
-1283.637 111.5055 -202.7084 6.549978 4.515379 142.2828 7.144714 11.26862 -1.093508 -0 16.90585 -0 -8.31174 -9.734167 -0.4526181 2.801934 -13.2577 -6.326671 -0 14.15147 -0 -0.5270046 -5.039276 16.33804 1.155148 -5.176465 5.804691 2.026339 16.38524 -7.369193 1.319889 20.10264 2.891825 0.246888 -22.29871 5.896999 0.2755623 -29.0683 14.17414 86.60666 12.70303 -11.64506 -0 0 27.26352 -26.31967 17.61609 14.3145 5.537599 -23.05148 -4.047427 -97.37762 10.33936 30.97452 -0 0 3.926941 12.87665 18.57009 -7.387441
-1281.187 111.4894 -207.2828 6.58287 4.46336 141.849 7.144338 11.25796 -1.094806 -0 16.90851 -0 -8.311915 -9.728444 -0.450429 2.799129 -13.25062 -6.330559 -0 14.15692 -0 -0.530017 -5.044345 16.33805 1.154533 -5.177058 5.803455 2.027411 16.38504 -7.370151 1.31957 20.10323 2.894498 0.249191 -22.30111 5.898484 0.278183 -29.06406 14.17494 86.60496 12.70285 -11.64946 -0 0 27.25913 -26.3193 17.61511 14.31116 5.541442 -23.05389 -4.045336 -97.37941 10.33939 30.96828 -0 0 3.931199 12.8836 18.57122 -7.397003
-1278.702 111.4735 -211.8378 6.615568 4.411708 141.4154 7.144312 11.24665 -1.096471 -0 16.9086 -0 -8.312298 -9.721331 -0.4481851 2.796586 -13.24416 -6.333612 -0 14.16711 -0 -0.5332865 -5.049071 16.33779 1.154174 -5.177482 5.802506 2.028079 16.38547 -7.370911 1.31936 20.10386 2.897221 0.2518472 -22.30274 5.899746 0.2803219 -29.05957 14.17583 86.6041 12.70183 -11.65458 -0 0 27.25402 -26.31944 17.61467 14.30775 5.545462 -23.05716 -4.044147 -97.38097 10.33955 30.96175 -0 0 3.933013 12.89045 18.57248 -7.405863
-1276.182 111.458 -216.3734 6.648132 4.360488 140.982 7.144631 11.23535 -1.098404 -0 16.90617 -0 -8.312864 -9.71326 -0.4460132 2.794442 -13.23869 -6.335675 -0 14.18139 -0 -0.5366246 -5.053195 16.33729 1.154086 -5.177718 5.801891 2.028314 16.3865 -7.371435 1.319267 20.10448 2.899839 0.2546997 -22.30353 5.900718 0.2818697 -29.05509 14.17678 86.60412 12.70005 -11.66009 -0 0 27.24848 -26.32009 17.6148 14.30446 5.549429 -23.06107 -4.043906 -97.38221 10.33982 30.95529 -0 0 3.932337 12.89682 18.57381 -7.413542
-1273.628 111.4428 -220.8893 6.68061 4.30973 140.5486 7.14527 11.22469 -1.100493 -0 16.9014 -0 -8.313579 -9.704705 -0.4440334 2.792808 -13.23448 -6.336653 -0 14.19885 -0 -0.5398426 -5.056497 16.33659 1.154268 -5.177756 5.801637 2.028112 16.38806 -7.371699 1.319296 20.10508 2.902207 0.2575836 -22.30344 5.901352 0.2827524 -29.05087 14.17772 86.60499 12.69762 -11.66568 -0 0 27.24284 -26.32119 17.61547 14.30148 5.553121 -23.06539 -4.044606 -97.38307 10.34019 30.94926 -0 0 3.929266 12.90235 18.57513 -7.419635
-1271.039 111.4278 -225.3854 6.713033 4.259417 140.1153 7.146185 11.21527 -1.102617 -0 16.89461 -0 -8.314401 -9.696159 -0.4423531 2.791767 -13.23175 -6.336516 -0 14.21846 -0 -0.5427624 -5.058808 16.33572 1.154704 -5.1776 5.801749 2.027494 16.39004 -7.371693 1.319441 20.1056 2.904196 0.260336 -22.3025 5.90162 0.2829344 -29.04714 14.17859 86.60665 12.6947 -11.67104 -0 0 27.23741 -26.32267 17.61663 14.29896 5.556337 -23.06987 -4.046188 -97.38351 10.34063 30.944 -0 0 3.924027 12.90677 18.57638 -7.423837
-1268.417 111.4129 -229.8615 6.745411 4.209499 139.6818 7.14732 11.20758 -1.104657 -0 16.88624 -0 -8.315281 -9.688101 -0.4410608 2.791361 -13.23061 -6.335296 -0 14.23906 -0 -0.5452263 -5.060018 16.33474 1.155363 -5.177262 5.802213 2.026505 16.39233 -7.371424 1.319693 20.10604 2.905704 0.2628051 -22.30078 5.901514 0.2824199 -29.04409 14.17937 86.60898 12.69146 -11.67587 -0 0 27.23249 -26.32444 17.61821 14.29705 5.558906 -23.07426 -4.048544 -97.38351 10.34111 30.93977 -0 0 3.916962 12.90984 18.57747 -7.425952
-1265.759 111.3982 -234.3175 6.777733 4.159887 139.2482 7.148605 11.20203 -1.1065 -0 16.87678 -0 -8.31617 -9.680974 -0.4402212 2.7916 -13.23109 -6.333085 -0 14.25949 -0 -0.5471052 -5.060084 16.33371 1.156204 -5.176765 5.802996 2.025207 16.39479 -7.370912 1.320035 20.10636 2.906656 0.2648583 -22.29839 5.901049 0.281252 -29.04189 14.17999 86.61185 12.68808 -11.67991 -0 0 27.22835 -26.32639 17.6201 14.29582 5.560697 -23.07831 -4.051526 -97.38309 10.34162 30.9368 -0 0 3.908507 12.91143 18.57837 -7.425907
-1263.068 111.3835 -238.7531 6.809968 4.110468 138.8143 7.149964 11.19887 -1.108047 -0 16.86679 -0 -8.317018 -9.675156 -0.4398725 2.792455 -13.23314 -6.330031 -0 14.2786 -0 -0.5483059 -5.059026 16.33268 1.157175 -5.176141 5.804047 2.02368 16.39729 -7.370191 1.320446 20.10655 2.90701 0.2663894 -22.29548 5.900259 0.2795098 -29.04064 14.18043 86.61507 12.68476 -11.68295 -0 0 27.2252 -26.32842 17.6222 14.29534 5.561626 -23.0818 -4.054953 -97.38227 10.34211 30.93522 -0 0 3.899168 12.91146 18.57901 -7.423749
-1260.343 111.3687 -243.1683 6.842067 4.061103 138.3802 7.151319 11.19823 -1.109216 -0 16.85684 -0 -8.317778 -9.670946 -0.4400242 2.793865 -13.2366 -6.326323 -0 14.29535 -0 -0.548775 -5.05693 16.33173 1.158218 -5.175426 5.805301 2.022014 16.39967 -7.369305 1.320902 20.1066 2.906759 0.2673241 -22.29223 5.899196 0.277303 -29.04039 14.18067 86.61848 12.68169 -11.68485 -0 0 27.22319 -26.3304 17.62438 14.29561 5.56166 -23.08455 -4.058623 -97.38112 10.34257 30.93509 -0 0 3.889485 12.90999 18.57937 -7.419643
-1257.583 111.3539 -247.5629 6.873965 4.011643 137.9458 7.152595 11.2001 -1.109948 -0 16.8475 -0 -8.31841 -9.668544 -0.440657 2.795737 -13.24125 -6.322186 -0 14.30886 -0 -0.5485018 -5.053937 16.33089 1.159273 -5.174663 5.806684 2.020306 16.40181 -7.368309 1.321377 20.10652 2.905932 0.2676231 -22.28883 5.897925 0.2747655 -29.04113 14.1807 86.62186 12.67902 -11.68551 -0 0 27.22242 -26.33222 17.62651 14.29661 5.560817 -23.08641 -4.062326 -97.3797 10.34297 30.93639 -0 0 3.880009 12.90711 18.57943 -7.413861
-1254.79 111.3388 -251.9368 6.905583 3.961933 137.5111 7.15372 11.2043 -1.11021 -0 16.83927 -0 -8.318878 -9.668044 -0.4417249 2.797956 -13.24679 -6.317861 -0 14.31843 -0 -0.5475177 -5.050235 16.33022 1.160281 -5.173895 5.808117 2.018652 16.4036 -7.367259 1.321844 20.10631 2.904587 0.2672838 -22.28547 5.896522 0.2720473 -29.04279 14.18052 86.62503 12.67691 -11.68494 -0 0 27.2229 -26.33379 17.62848 14.29826 5.559164 -23.08731 -4.065852 -97.3781 10.34328 30.93902 -0 0 3.871264 12.90302 18.57921 -7.406761
-1251.963 111.3235 -256.2896 6.936837 3.911825 137.0762 7.154635 11.21056 -1.109997 -0 16.83259 -0 -8.31916 -9.669432 -0.443158 2.800391 -13.25291 -6.313595 -0 14.32361 -0 -0.5458936 -5.04605 16.32975 1.161186 -5.173165 5.809517 2.017144 16.40493 -7.366216 1.322275 20.10598 2.902811 0.2663394 -22.28234 5.89507 0.2693056 -29.04527 14.18015 86.62781 12.67546 -11.68319 -0 0 27.22458 -26.33502 17.63019 14.30045 5.556811 -23.08722 -4.069008 -97.37641 10.3435 30.9428 -0 0 3.863724 12.89798 18.5787 -7.398772
-1249.102 111.308 -260.6211 6.96764 3.861184 136.641 7.155293 11.21846 -1.109331 -0 16.82781 -0 -8.319243 -9.67259 -0.4448672 2.8029 -13.25924 -6.309626 -0 14.3242 -0 -0.543735 -5.041628 16.32949 1.16194 -5.172513 5.810808 2.015863 16.40576 -7.36524 1.322648 20.10555 2.900714 0.2648562 -22.27961 5.89365 0.2666956 -29.04841 14.17962 86.63006 12.67474 -11.68038 -0 0 27.22733 -26.33585 17.63153 14.30305 5.553906 -23.08615 -4.071623 -97.37473 10.3436 30.94749 -0 0 3.857787 12.89229 18.57796 -7.390362
-1246.209 111.2921 -264.9312 6.997907 3.809898 136.2056 7.155664 11.22754 -1.108259 -0 16.82515 -0 -8.319126 -9.677301 -0.4467499 2.805342 -13.26543 -6.306169 -0 14.32026 -0 -0.5411754 -5.037222 16.32946 1.162504 -5.171974 5.811919 2.014877 16.40603 -7.364382 1.322942 20.10505 2.898421 0.2629293 -22.27743 5.892342 0.2643619 -29.05202 14.17894 86.63167 12.67478 -11.6767 -0 0 27.23099 -26.33624 17.63245 14.30591 5.550625 -23.0842 -4.073561 -97.37316 10.3436 30.95281 -0 0 3.85375 12.88629 18.57702 -7.382013
